Coordinates
version=1
nRows=9
nColumns=36
inDegrees=yes

Units are S.I. units (second, meters, Newtons, ...)
If the header above contains a line with 'inDegrees', this indicates whether rotational values are in degrees (yes) or radians (no).

endheader
time	pelvis_tilt	pelvis_list	pelvis_rotation	pelvis_tx	pelvis_ty	pelvis_tz	hip_flexion_r	hip_adduction_r	hip_rotation_r	knee_angle_r	knee_angle_r_beta	ankle_angle_r	subtalar_angle_r	mtp_angle_r	hip_flexion_l	hip_adduction_l	hip_rotation_l	knee_angle_l	knee_angle_l_beta	ankle_angle_l	subtalar_angle_l	mtp_angle_l	lumbar_extension	lumbar_bending	lumbar_rotation	arm_flex_r	arm_add_r	arm_rot_r	elbow_flex_r	pro_sup_r	arm_flex_l	arm_add_l	arm_rot_l	elbow_flex_l	pro_sup_l
      1.20833330	    -14.73724424	      0.11247465	     -0.66412006	     -1.01736166	      1.38329186	     -0.05786775	     12.78773033	      0.77101780	     -2.26269657	      8.01804526	      0.13994129	     10.19327360	     -1.21799324	     -7.49999987	     12.47139998	      0.36621688	     -0.48072409	      8.77456458	      0.15314504	     10.43405109	      0.62231636	     -7.49999987	    -14.02533888	      2.40772653	     -3.21277809	    -27.16209652	    -11.65515712	    -10.79898255	     42.78123572	     65.47265719	    -24.30691794	     -7.36955798	    -17.62861167	     10.15707047	     55.34819043
      1.21250000	    -14.47094922	      0.13163641	     -0.50096906	     -1.01259400	      1.38312325	     -0.05824889	     12.44872142	      0.73054438	     -2.36767588	      8.09558163	      0.14129455	     10.21132267	     -1.18077902	     -7.49999987	     12.30451199	      0.37585830	     -0.59758260	      9.13428338	      0.15942332	     10.59303327	      0.83979507	     -7.49999987	    -14.58958422	      2.35581682	     -3.20975727	    -26.97757165	    -11.32764707	    -11.43155731	     42.25811110	     66.59008722	    -24.00823316	     -6.98810423	    -21.08491735	     10.70280840	     53.28452436
      1.21666670	    -14.07226998	      0.15992080	     -0.47661386	     -1.01116278	      1.39016447	     -0.05921136	     11.95349312	      0.66158002	     -2.59489048	      8.15415002	      0.14231677	     10.14441996	     -1.14677449	     -7.49999987	     11.80829033	      0.37780998	     -0.70701697	      9.22370020	      0.16098394	     10.46355082	      1.05446916	     -7.49999987	    -15.24291957	      2.27145858	     -3.06456975	    -26.31346239	    -11.14696556	    -11.58745864	     41.10163697	     66.60991562	    -23.53947529	     -6.86308824	    -21.14631211	     10.61723555	     53.20476766
      1.22083330	    -13.81371541	      0.22498043	     -0.54289908	     -1.01513983	      1.38234462	     -0.05695383	     11.74988546	      0.64024071	     -2.43125101	      8.23592855	      0.14374407	     10.15300712	     -1.50228582	     -7.49999987	     11.57843485	      0.34810911	     -1.32452315	      9.49033265	      0.16563755	     10.81842510	      2.01811791	     -7.49999987	    -15.93690574	      2.12169976	     -3.08184215	    -25.91820548	    -10.99338264	    -11.85867747	     40.65694208	     66.43503183	    -23.35895155	     -6.89134045	    -21.35151149	     10.69966270	     53.12449640
      1.22500000	    -13.70906380	      0.22616958	     -0.38042621	     -1.01049260	      1.37820600	     -0.05683974	     11.59072654	      0.62928854	     -2.48935090	      8.29973647	      0.14485773	     10.23763832	     -1.53198958	     -7.49999987	     11.46530974	      0.36101371	     -0.91312199	      9.66812326	      0.16874058	     10.72723602	      1.38051594	     -7.49999987	    -16.27791809	      2.12950398	     -3.18443308	    -26.08667871	    -10.80968730	    -12.32288709	     40.66379914	     65.98511434	    -23.48197908	     -6.86806089	    -21.91046044	     10.77698200	     53.24552467
      1.22916670	    -13.71617559	      0.24697855	     -0.35737491	     -1.01188667	      1.37916435	     -0.05819451	     11.68459953	      0.58883351	     -2.56494768	      8.51311135	      0.14858182	     10.42478260	     -1.68383623	     -7.49999987	     11.46582499	      0.36505568	     -0.84277872	      9.79105313	      0.17088611	     10.86528383	      1.37602142	     -7.49999987	    -16.60608391	      2.12011290	     -3.11709181	    -26.06637372	    -10.79412160	    -12.64091437	     40.68409017	     65.55329430	    -23.35549125	     -6.81025609	    -22.24422045	     11.09182046	     53.53600112
      1.23333330	    -13.53497800	      0.25977895	     -0.28950108	     -1.01085084	      1.38382422	     -0.05697420	     11.56557540	      0.56032955	     -2.69871212	      8.74613465	      0.15264885	     10.52721430	     -1.78748373	     -7.49999987	     11.25903288	      0.35877825	     -0.82180526	      9.91228974	      0.17300209	     10.92671872	      1.40900004	     -7.49999987	    -17.14694392	      2.08934729	     -3.25476524	    -25.69891717	    -10.79884892	    -12.70343789	     40.53258455	     65.63409651	    -22.80670546	     -6.78014890	    -22.34116531	     10.84727826	     53.42954251
      1.23750000	    -13.36680279	      0.29493742	     -0.25648112	     -1.01098715	      1.38002720	     -0.05747835	     11.46789816	      0.51305941	     -2.77340032	      8.98289125	      0.15678103	     10.69800927	     -1.84814453	     -7.49999987	     11.05444878	      0.38853910	     -0.81740113	      9.97020030	      0.17401282	     10.94757577	      1.35734548	     -7.49999987	    -17.72457518	      2.06105502	     -3.30658827	    -25.41098238	    -10.90847983	    -12.65402745	     40.18270137	     65.39515282	    -22.19584291	     -6.81473588	    -22.77496362	     10.26508229	     53.40607604
      1.24166670	    -13.14254393	      0.31519068	     -0.23519199	     -1.00821462	      1.38396163	     -0.05879016	     11.29814558	      0.44577857	     -2.82645843	      9.32100281	      0.16268219	     10.74662751	     -2.08817895	     -7.49999987	     10.80181034	      0.42021687	     -0.82951975	     10.01150108	      0.17473366	     10.98865760	      1.44335417	     -7.49999987	    -18.51035755	      1.97058219	     -3.58893179	    -24.60774339	    -10.80152627	    -12.99728931	     39.39526444	     65.41183382	    -21.30306685	     -6.77723215	    -22.70089058	      9.35075705	     53.33979682
